<svg id="Layer_1" data-name="Layer 1" xmlns="http://www.w3.org/2000/svg" viewBox="0 0 256 256">
  <path id="aws-brands-2" d="M99,117c-.15,4.7,2.2,6.78,2.26,8.1a1.69,1.69,0,0,1-.85,1.3l-2.66,1.86a2.22,2.22,0,0,1-1.17.4c-.09,0-1.7.38-4.25-5.31a16.33,16.33,0,0,1-13,6.11c-3.38.18-12.53-1.92-12.06-11.66-.33-8,7.07-12.88,14.72-12.46a41.16,41.16,0,0,1,9.75,1.3V103.4a7.89,7.89,0,0,0-9.3-9.11A24.74,24.74,0,0,0,73,96.39a3.72,3.72,0,0,1-2.23.58c-1.54,0-.91-4.45-.61-5,1.08-1.32,7.44-3.8,13.68-3.77a16,16,0,0,1,11.56,3.59A14.56,14.56,0,0,1,99,102.63V117ZM81.1,123.72c6.73-.09,9.58-4.14,10.23-6.32a20.91,20.91,0,0,0,.43-5.69,36,36,0,0,0-8.21-1c-3.14-.23-8.88,1.17-8.66,6.7A5.77,5.77,0,0,0,80,123.72a5.47,5.47,0,0,0,1.07,0Zm35.47,4.79a2.39,2.39,0,0,1-2.63-2.14v0L103.61,92.2a7.9,7.9,0,0,1-.4-1.78,1,1,0,0,1,.8-1.08h4.62a2.36,2.36,0,0,1,2.59,2.09v.06l7.41,29.23,6.88-29.23a2.35,2.35,0,0,1,2.54-2.14h3.68a2.31,2.31,0,0,1,2.61,1.94c0,.07,0,.14,0,.22l6.93,29.59L149,91.51a2.44,2.44,0,0,1,2.63-2.16h4.09c.18,0,1.28-.16,1.09,1.78-.09.39.71-2.21-10.95,35.26a2.39,2.39,0,0,1-2.61,2.15h-3.89a2.39,2.39,0,0,1-2.62-2.14.28.28,0,0,1,0-.09L129.8,97.86,123,126.27a2.39,2.39,0,0,1-2.52,2.24h-3.91Zm56.74,1.17a28,28,0,0,1-11.91-2.56,2.64,2.64,0,0,1-1.62-2.47v-2.23c0-1.75,1.29-1.43,1.84-1.22a27.92,27.92,0,0,0,6,2c7.61,1.57,10.95-.47,11.77-.92a4.78,4.78,0,0,0,1.61-6.55,5.17,5.17,0,0,0-.52-.71c-2.17-1.82-3.22-1.89-11-4.35-1-.27-9.07-2.82-9.09-10.87-.13-5.86,5.19-11.66,14.42-11.61,2.63,0,9.64.87,11.53,3.25a2.5,2.5,0,0,1,.4,1.46V95c0,.92-.33,1.38-1,1.38-1.6-.18-4.44-2.32-10.2-2.23-1.43-.07-8.28.19-8,5.18-.09,3.94,5.52,5.42,6.16,5.58,7.57,2.28,10.1,2.66,13.1,6.14a11.27,11.27,0,0,1,.9,11.51c-4,7.78-14.2,7.14-14.37,7.14Zm8.34,21.76C167.12,162.17,146,167.88,128,167.88a97.35,97.35,0,0,1-65.84-25c-1.35-1.22-.16-2.89,1.49-2a132.22,132.22,0,0,0,65.75,17.45A130.8,130.8,0,0,0,179.55,148c2.45-1,4.52,1.62,2.1,3.4Zm6.07-6.91c-1.86-2.38-12.3-1.12-17-.56-1.41.16-1.65-1.06-.37-2,8.31-5.85,22-4.18,23.54-2.21s-.44,15.65-8.21,22.18c-1.2,1-2.34.48-1.81-.85,1.75-4.4,5.68-14.2,3.82-16.6Z"/>
</svg>
