<svg id="Layer_1" xmlns="http://www.w3.org/2000/svg" viewBox="0 0 256 256">
  <path id="compress-arrows-alt-solid-2" d="M100,144H44a12,12,0,0,0-8.5,20.5L52,180,2.35,229.66a8,8,0,0,0,0,11.3l12.71,12.7a8,8,0,0,0,11.3,0L76,204l15.55,16.5A12,12,0,0,0,112,212V156a12,12,0,0,0-12-12Zm56-32h56a12,12,0,0,0,8.5-20.5L204,76l49.65-49.66a8,8,0,0,0,0-11.3L241,2.34a8,8,0,0,0-11.31,0L180,52l-15.55-16.5A12,12,0,0,0,144,44v56a12,12,0,0,0,12,12h0Zm48,68,16.5-15.55A12,12,0,0,0,212,144H156a12,12,0,0,0-12,12v56a12,12,0,0,0,20.5,8.5L180,204l49.65,49.66a8,8,0,0,0,11.3,0L253.65,241a8,8,0,0,0,0-11.3ZM91.5,35.54,76,52,26.34,2.34A8,8,0,0,0,15,2.34L2.34,15a8,8,0,0,0,0,11.31L52,76,35.49,91.55A12,12,0,0,0,44,112h56a12,12,0,0,0,12-12V44A12,12,0,0,0,91.5,35.54Z"/>
</svg>
