<svg id="Layer_1" data-name="Layer 1" xmlns="http://www.w3.org/2000/svg" viewBox="0 0 256 256">
  <path id="github-brands-2" d="M112.12,156.58c0,.39-.45.69-1,.69S110,157,110,156.58s.44-.7,1-.7S112.12,156.13,112.12,156.58Zm-6-.88c-.14.39.25.83.83,1a.91.91,0,0,0,1.2-.39c.12-.39-.25-.84-.83-1a1,1,0,0,0-1.2.44Zm8.56-.33c-.57.14-1,.5-.89.95s.56.64,1.14.5,1-.5.89-.89-.59-.62-1.15-.56ZM127.39,81.2A46.41,46.41,0,0,0,80,126.63q0,.9,0,1.8a48.52,48.52,0,0,0,32.81,46.3c2.47.44,3.35-1.08,3.35-2.34s-.06-7.8-.06-11.88c0,0-13.55,2.9-16.38-5.77,0,0-2.21-5.63-5.39-7.08,0,0-4.43-3,.31-3a10.23,10.23,0,0,1,7.48,5A10.22,10.22,0,0,0,116,153.84l.24-.13a10.7,10.7,0,0,1,3.1-6.52c-10.82-1.2-21.74-2.77-21.74-21.39a14.65,14.65,0,0,1,4.57-11.4,18.28,18.28,0,0,1,.5-13.14c4-1.26,13.36,5.22,13.36,5.22a45.8,45.8,0,0,1,24.31,0s9.3-6.5,13.35-5.22a18.28,18.28,0,0,1,.5,13.14,15,15,0,0,1,5,11.4c0,18.68-11.4,20.17-22.23,21.39a11.42,11.42,0,0,1,3.3,9c0,6.52-.06,14.59-.06,16.18,0,1.26.89,2.79,3.35,2.34A48.08,48.08,0,0,0,176,128.42a47.45,47.45,0,0,0-47.68-47.23ZM98.82,148c-.25.19-.19.64.14,1s.75.44,1,.19.2-.64-.13-1S99.07,147.71,98.82,148Zm-2.09-1.56c-.14.25.06.56.45.76a.59.59,0,0,0,.81-.11l0,0c.13-.25-.06-.56-.45-.76s-.69-.06-.83.13Zm6.29,6.88c-.31.26-.2.83.25,1.2s1,.51,1.26.2a.92.92,0,0,0-.25-1.2C103.83,153,103.25,153,103,153.28Zm-2.21-2.84c-.31.19-.31.69,0,1.14s.83.64,1.08.44a.87.87,0,0,0,0-1.2c-.28-.44-.79-.63-1.09-.38Z"/>
</svg>
