<svg id="Layer_1" xmlns="http://www.w3.org/2000/svg" viewBox="0 0 256 256">
  <path id="grin-hearts-regular-2" d="M182.5,153.08a191.71,191.71,0,0,1-54.5,6.77,192.1,192.1,0,0,1-54.5-6.76,7.08,7.08,0,0,0-8.9,4.62,7,7,0,0,0-.24,3.27c4.08,24.36,36.8,41.29,63.64,41.29s59.51-17,63.64-41.29a7.1,7.1,0,0,0-5.89-8.13A7,7,0,0,0,182.5,153.08Zm-78.86-25.24a4.49,4.49,0,0,0,5.42-3.1l10-36.08a18.24,18.24,0,0,0-12.66-22.49,16.91,16.91,0,0,0-2.2-.47A19.6,19.6,0,0,0,82.79,80.1l-1,3.66-3.66-1A19.51,19.51,0,0,0,54.9,94.13a18.3,18.3,0,0,0,10.4,23.69,19.36,19.36,0,0,0,2.08.67l36.24,9.34Zm97.45-33.7a19.59,19.59,0,0,0-23.2-11.36l-3.67,1-1-3.67a19.53,19.53,0,0,0-21.41-14.4,18.27,18.27,0,0,0-15.34,20.77,17.91,17.91,0,0,0,.47,2.2l10,36.08a4.43,4.43,0,0,0,5.41,3.1l36.24-9.39a18.25,18.25,0,0,0,13.16-22.2,18,18,0,0,0-.68-2.12ZM128,0A128,128,0,1,0,256,128,128,128,0,0,0,128,0Zm0,231.2A103.2,103.2,0,1,1,231.2,128,103.19,103.19,0,0,1,128,231.2Z"/>
</svg>
