<svg id="Layer_1" xmlns="http://www.w3.org/2000/svg" viewBox="0 0 256 256">
  <path id="heartbeat-solid-2" d="M160.14,121.93l-24.88,49.68a8,8,0,0,1-14.44-.31L92.37,108.16,77.37,144H30.32l91.25,93.25a8.91,8.91,0,0,0,12.6.25c.08-.08.17-.16.25-.25L225.74,144H171.17Zm76.74-85-1.2-1.25a65.5,65.5,0,0,0-92.62-1.08L142,35.73,128,50l-14-14.25a65.41,65.41,0,0,0-92.49-1.2l-1.21,1.2L19.16,37a68.65,68.65,0,0,0-3.64,91h51.2l18-43.1a8,8,0,0,1,14.67-.19l29.09,64.65,24.51-49a8,8,0,0,1,14.29,0L181,128h59.45A68.67,68.67,0,0,0,236.84,37Z"/>
</svg>
