<svg id="Layer_1" data-name="Layer 1" xmlns="http://www.w3.org/2000/svg" viewBox="0 0 256 256">
  <g>
    <path id="Path_14-2" data-name="Path 14-2" d="M86.81,172.3H80.69q-.33-15.5-1.79-29.15h-.05L69.53,172.3H64.86L55.6,143.15h-.05q-1,13.11-1.3,29.15H48.67q.54-19.5,2.71-36.57H59l8.83,26.87h.06l8.88-26.87H84q2.39,20,2.82,36.57"/>
    <path id="Path_15-2" data-name="Path 15-2" d="M113.36,145.3q-3.73,20.3-9.86,29.49-4.77,7.08-10.46,7.08A10.12,10.12,0,0,1,89.3,181V177.7a16.8,16.8,0,0,0,2.55.16,6.14,6.14,0,0,0,4.28-1.46,5.37,5.37,0,0,0,2-4,26.76,26.76,0,0,0-1.52-6.23l-6.72-20.85h6l4.82,15.6a21.14,21.14,0,0,1,1.35,7.42,101.79,101.79,0,0,0,5.53-23Z"/>
    <path id="Path_16-2" data-name="Path 16-2" d="M194.86,172.3H177.47V135.73h5.85V167.8h11.54Z"/>
    <path id="Path_17-2" data-name="Path 17-2" d="M172.92,173.17l-6.72-3.32a12.32,12.32,0,0,0,1.68-1.63q4.27-5,4.28-14.9,0-18.15-14.25-18.15A13.51,13.51,0,0,0,147,139.78q-4.28,5-4.28,14.84,0,9.65,3.79,14.15A13,13,0,0,0,157,172.83a16.87,16.87,0,0,0,4.79-.64l8.75,5.09ZM151.14,165q-2.23-3.57-2.23-11.49,0-13.81,8.4-13.82a7,7,0,0,1,6.45,3.31q2.22,3.59,2.22,11.38,0,13.92-8.4,13.93a7,7,0,0,1-6.44-3.31" style="fill-rule: evenodd"/>
    <path id="Path_18-2" data-name="Path 18-2" d="M140.18,162.17a9.71,9.71,0,0,1-3.42,7.64,13.44,13.44,0,0,1-9.15,3,18.36,18.36,0,0,1-10.4-3.42l1.57-3.15a17.86,17.86,0,0,0,7.85,2.17,8.31,8.31,0,0,0,5.18-1.46,5,5,0,0,0,2-4.06c0-2.17-1.52-4-4.29-5.59-2.56-1.41-7.7-4.35-7.7-4.35a8.77,8.77,0,0,1-4.17-7.78,9.11,9.11,0,0,1,3.11-7.18,11.76,11.76,0,0,1,8.05-2.74,16.68,16.68,0,0,1,9.27,2.71l-1.42,3.15a17.94,17.94,0,0,0-7-1.51,6.24,6.24,0,0,0-4.32,1.35,4.54,4.54,0,0,0-1.65,3.47c0,2.16,1.55,4,4.41,5.63,2.6,1.41,7.85,4.41,7.85,4.41a8.62,8.62,0,0,1,4.28,7.73"/>
    <path id="Path_19-2" data-name="Path 19-2" d="M202.21,123.46a20.38,20.38,0,0,0-8.58,1.23c-.66.27-1.72.27-1.81,1.11.35.35.39.93.71,1.41a10.09,10.09,0,0,0,2.3,2.7c.92.71,1.85,1.41,2.83,2,1.72,1.06,3.66,1.68,5.34,2.74,1,.62,1.94,1.42,2.92,2.08.48.35.79.93,1.41,1.15v-.14c-.31-.39-.39-1-.7-1.41s-.89-.84-1.33-1.28a20.88,20.88,0,0,0-4.59-4.46c-1.42-1-4.51-2.3-5.09-3.94l-.09-.09a16.68,16.68,0,0,0,3.05-.71c1.5-.39,2.87-.31,4.42-.7.71-.18,1.42-.4,2.13-.62v-.39c-.8-.79-1.38-1.86-2.21-2.61a59.27,59.27,0,0,0-7.29-5.44c-1.38-.88-3.15-1.45-4.6-2.21-.53-.26-1.41-.39-1.72-.84a17.36,17.36,0,0,1-1.82-3.4c-1.28-2.43-2.52-5.12-3.62-7.69a49.31,49.31,0,0,0-2.25-5,44.52,44.52,0,0,0-17.11-16.52,21.21,21.21,0,0,0-5.65-1.82c-1.11,0-2.22-.13-3.32-.17a19.09,19.09,0,0,1-2-1.55c-2.52-1.59-9-5-10.87-.49-1.2,2.88,1.77,5.71,2.78,7.16a20.53,20.53,0,0,1,2.25,3.31c.31.76.4,1.55.71,2.35a53.7,53.7,0,0,0,2.3,5.92,22.23,22.23,0,0,0,1.63,2.74c.36.49,1,.7,1.11,1.5a12.9,12.9,0,0,0-1,3.32,19.52,19.52,0,0,0,1.29,14.85c.7,1.1,2.38,3.54,4.64,2.6,2-.78,1.54-3.31,2.12-5.52.13-.53,0-.88.31-1.24v.09c.61,1.24,1.24,2.43,1.81,3.67a25.25,25.25,0,0,0,5.75,5.92c1.06.8,1.9,2.16,3.22,2.65v-.13h-.09a4.47,4.47,0,0,0-1-.88,20.8,20.8,0,0,1-2.3-2.66,55.62,55.62,0,0,1-4.95-8c-.71-1.38-1.33-2.87-1.9-4.24-.27-.53-.27-1.33-.71-1.59a17.1,17.1,0,0,0-2.12,3,25.26,25.26,0,0,0-1.24,6.68c-.17,0-.09,0-.17.08-1.42-.35-1.9-1.81-2.43-3a19.15,19.15,0,0,1-.4-11.81c.31-.92,1.64-3.84,1.11-4.72-.27-.84-1.15-1.32-1.64-2a17.1,17.1,0,0,1-1.59-2.83c-1.06-2.47-1.59-5.21-2.74-7.68a22.34,22.34,0,0,0-2.21-3.41A22.26,22.26,0,0,1,144.72,79c-.22-.49-.53-1.29-.18-1.82a.71.71,0,0,1,.63-.57c.57-.49,2.2.13,2.78.39a23,23,0,0,1,4.37,2.21c.62.44,1.29,1.28,2.08,1.51h.93c1.41.3,3,.08,4.33.48A28.41,28.41,0,0,1,166,84.26,39.17,39.17,0,0,1,179.8,99.38c.54,1,.76,1.94,1.24,3,.93,2.16,2.08,4.38,3,6.49a29.06,29.06,0,0,0,3.15,5.93c.66.92,3.31,1.41,4.5,1.89a32.44,32.44,0,0,1,3.05,1.24c1.51.93,3,2,4.42,3,.71.53,2.92,1.63,3.05,2.52" style="fill-rule: evenodd"/>
    <path id="Path_20-2" data-name="Path 20-2" d="M206.4,172.29h.92V167.8h-1.38l-1.12,3.06-1.22-3.06h-1.32v4.48h.86v-3.41h.05l1.28,3.41h.66l1.27-3.41Zm-7.37,0h1v-3.72h1.28v-.77h-3.56v.76H199Z"/>
  </g>
</svg>
