<svg id="Layer_1" data-name="Layer 1" xmlns="http://www.w3.org/2000/svg" viewBox="0 0 256 256">
  <g>
    <path id="Path_6-2" data-name="Path 6-2" d="M127,183.3a3.41,3.41,0,0,1-1.71-.45l-5.44-3.22c-.81-.45-.42-.62-.15-.71a11,11,0,0,0,2.47-1.12.41.41,0,0,1,.4,0l4.19,2.48a.5.5,0,0,0,.5,0l16.31-9.41a.5.5,0,0,0,.25-.45V151.63a.55.55,0,0,0-.25-.45l-16.31-9.4a.5.5,0,0,0-.5,0l-16.3,9.41a.5.5,0,0,0-.25.45v18.81a.51.51,0,0,0,.25.44l4.47,2.58c2.43,1.21,3.91-.22,3.91-1.65V153.24a.47.47,0,0,1,.47-.47h2.07a.47.47,0,0,1,.47.47v18.58a4.52,4.52,0,0,1-3.89,5.07,4.22,4.22,0,0,1-.94,0,7,7,0,0,1-3.75-1L109,173.42a3.44,3.44,0,0,1-1.71-3V151.63a3.45,3.45,0,0,1,1.71-3l16.31-9.43a3.6,3.6,0,0,1,3.43,0l16.3,9.43a3.46,3.46,0,0,1,1.72,3v18.82a3.47,3.47,0,0,1-1.72,3l-16.3,9.42A3.54,3.54,0,0,1,127,183.3Z"/>
    <path id="Path_7-2" data-name="Path 7-2" d="M132,170.33c-7.14,0-8.63-3.28-8.63-6a.47.47,0,0,1,.47-.47h2.11a.48.48,0,0,1,.47.4c.31,2.15,1.26,3.23,5.58,3.23,3.43,0,4.9-.77,4.9-2.6,0-1.05-.42-1.83-5.76-2.35-4.46-.45-7.22-1.43-7.22-5,0-3.29,2.77-5.25,7.42-5.25,5.23,0,7.81,1.81,8.14,5.7a.49.49,0,0,1-.43.52h-2.16a.47.47,0,0,1-.44-.37c-.51-2.26-1.75-3-5.1-3-3.75,0-4.18,1.31-4.18,2.29,0,1.18.51,1.53,5.57,2.2s7.4,1.6,7.4,5.12S137.16,170.33,132,170.33Z"/>
    <path id="Path_8-2" data-name="Path 8-2" d="M155.51,150.59a3.15,3.15,0,1,1-3.14-3.14h0A3.15,3.15,0,0,1,155.51,150.59Zm-5.78,0a2.64,2.64,0,1,0,2.65-2.63h0a2.64,2.64,0,0,0-2.63,2.62Zm1.46-1.75h1.21c.42,0,1.23,0,1.23.93a.81.81,0,0,1-.67.86c.48,0,.51.35.58.8a3.65,3.65,0,0,0,.18.93H153c0-.16-.13-1.06-.13-1.12s-.12-.3-.37-.3h-.61v1.41h-.68Zm.67,1.54h.55a.47.47,0,0,0,.53-.41v-.08c0-.49-.33-.49-.52-.49h-.56Z"/>
    <path id="Path_9-2" data-name="Path 9-2" d="M76.45,109.68a2.09,2.09,0,0,0-1-1.82l-17.3-9.94a2,2,0,0,0-1-.28H57a2.14,2.14,0,0,0-1,.28l-17.29,10a2.09,2.09,0,0,0-1,1.81l0,26.8a1,1,0,0,0,.52.9,1,1,0,0,0,1,0l10.28-5.89a2.09,2.09,0,0,0,1-1.81V117.16a2.09,2.09,0,0,1,1-1.8L56,112.84a2,2,0,0,1,1.05-.28,1.94,1.94,0,0,1,1,.28l4.37,2.52a2.07,2.07,0,0,1,1,1.8v12.52a2.1,2.1,0,0,0,1.05,1.81l10.27,5.89a1,1,0,0,0,1.56-.9Z" style="fill-rule: evenodd"/>
    <path id="Path_10-2" data-name="Path 10-2" d="M159.65,72.83a1,1,0,0,0-1.42.4,1.17,1.17,0,0,0-.13.51v26.54a.73.73,0,0,1-.73.73.75.75,0,0,1-.36-.1l-4.33-2.49a2,2,0,0,0-2.08,0l-17.29,10a2.08,2.08,0,0,0-1.05,1.81v20a2.1,2.1,0,0,0,1.05,1.81l17.29,10a2.06,2.06,0,0,0,2.09,0L170,132a2.1,2.1,0,0,0,1.05-1.81V80.4A2.08,2.08,0,0,0,170,78.58Zm-1.6,50.79a.51.51,0,0,1-.26.44l-5.94,3.43a.53.53,0,0,1-.52,0l-5.94-3.43a.51.51,0,0,1-.26-.44v-6.86a.51.51,0,0,1,.26-.45l5.94-3.43a.53.53,0,0,1,.52,0l5.94,3.43a.51.51,0,0,1,.26.45Z" style="fill-rule: evenodd"/>
    <path id="Path_11-2" data-name="Path 11-2" d="M217.26,116.58a2.12,2.12,0,0,0,1-1.8v-4.84a2.09,2.09,0,0,0-1-1.79l-17.19-10a2.06,2.06,0,0,0-2.09,0l-17.29,10a2.09,2.09,0,0,0-1,1.81v20a2.08,2.08,0,0,0,1,1.81l17.19,9.8a2.09,2.09,0,0,0,2,0l10.4-5.78a1,1,0,0,0,.4-1.42,1.07,1.07,0,0,0-.39-.4l-17.4-10a1.05,1.05,0,0,1-.53-.89V116.8a1.08,1.08,0,0,1,.53-.9l5.41-3.12a1,1,0,0,1,1,0l5.42,3.12a1,1,0,0,1,.52.9v4.92a1,1,0,0,0,1,1,1.08,1.08,0,0,0,.53-.14Z" style="fill-rule: evenodd"/>
    <path id="Path_12-2" data-name="Path 12-2" d="M198.76,115.65a.41.41,0,0,1,.4,0l3.32,1.91a.42.42,0,0,1,.2.35v3.83a.4.4,0,0,1-.2.35L199.16,124a.41.41,0,0,1-.4,0l-3.32-1.92a.4.4,0,0,1-.2-.35v-3.83a.42.42,0,0,1,.2-.35Z" style="fill-rule: evenodd"/>
    <path id="Path_13-2" data-name="Path 13-2" d="M105.4,98.26a2.09,2.09,0,0,0-2.08,0l-17.2,9.92a2.09,2.09,0,0,0-1,1.8v19.86a2.09,2.09,0,0,0,1,1.8l17.2,9.93a2.09,2.09,0,0,0,2.08,0l17.19-9.93a2.07,2.07,0,0,0,1-1.8V110a2.05,2.05,0,0,0-1-1.8Z" style="fill-rule: evenodd"/>
  </g>
</svg>
