<svg id="Layer_1" data-name="Layer 1" xmlns="http://www.w3.org/2000/svg" viewBox="0 0 256 256">
  <path id="Path_3-2" data-name="Path 3-2" d="M69.81,107.88H90.32q9,.08,13.08,5.2t2.68,14a27.09,27.09,0,0,1-2.38,8,23.71,23.71,0,0,1-4.9,7,17.14,17.14,0,0,1-8.19,5,38,38,0,0,1-9,1.08H72.41L69.5,162.75H58.87l10.94-54.87h0m9,8.72-4.59,23a5.72,5.72,0,0,0,.92.08h1.08a40.15,40.15,0,0,0,12.24-1.45Q93.3,136.58,95,127c.91-5.36,0-8.45-2.76-9.26a34.22,34.22,0,0,0-10.18-1.15c-.61.05-1.19.07-1.76.07h-1.6l.07-.07"/>
  <path id="Path_4-2" data-name="Path 4-2" d="M118.19,93.25h10.56l-3,14.62h9.49a19,19,0,0,1,11.63,3.21q3.9,3.06,2.3,11.63l-5.13,25.48H133.34l4.9-24.33a6.9,6.9,0,0,0-.46-5.43,6.54,6.54,0,0,0-5.28-1.61l-8.49-.07-6.27,31.44H107.17l11-54.94h0"/>
  <path id="Path_5-2" data-name="Path 5-2" d="M160.52,107.88H181q9,.08,13.08,5.2t2.68,14a26.79,26.79,0,0,1-2.38,8,23.86,23.86,0,0,1-4.89,7,17.14,17.14,0,0,1-8.19,5,38.19,38.19,0,0,1-9,1.08h-9.16l-2.92,14.54H149.58l10.94-54.86h0m8.95,8.72-4.59,22.94a5.62,5.62,0,0,0,.92.08h1.08a40.15,40.15,0,0,0,12.24-1.45q4.89-1.6,6.58-11.17,1.38-8-2.75-9.26a34.29,34.29,0,0,0-10.18-1.15c-.61.05-1.2.07-1.76.07H169.4l.07-.07"/>
</svg>
