<svg id="Layer_1" data-name="Layer 1" xmlns="http://www.w3.org/2000/svg" viewBox="0 0 256 256">
  <path id="Path_1-2" data-name="Path 1-2" d="M169.26,108h0c-1.37-.47-2.74-.9-4.12-1.3.22-.93.44-1.87.63-2.81,3.12-15.14,1.09-27.34-5.88-31.36-6.68-3.85-17.6.17-28.63,9.77-1.09,1-2.15,1.92-3.19,2.93-.69-.67-1.4-1.32-2.12-2C114.39,73,102.81,68.65,95.84,72.68,89.16,76.54,87.19,88,90,102.35c.28,1.43.59,2.84.94,4.24-1.62.47-3.22,1-4.73,1.49C72.65,112.81,64,120.21,64,127.89c0,7.93,9.29,15.89,23.41,20.71,1.14.39,2.29.75,3.46,1.09-.38,1.51-.72,3-1,4.57-2.68,14.11-.59,25.29,6.07,29.13,6.87,4,18.4-.11,29.64-9.93q1.32-1.16,2.67-2.46,1.68,1.63,3.46,3.16c10.88,9.36,21.62,13.14,28.27,9.29,6.86-4,9.09-16,6.2-30.63-.22-1.12-.48-2.26-.77-3.42.81-.24,1.6-.49,2.38-.75,14.67-4.86,24.22-12.72,24.22-20.76C192,120.18,183.08,112.74,169.26,108ZM134.85,86.4c9.45-8.23,18.28-11.48,22.31-9.16,4.28,2.48,6,12.44,3.25,25.51-.18.85-.37,1.7-.57,2.54a130.3,130.3,0,0,0-17.12-2.71,127.66,127.66,0,0,0-10.82-13.5c1-.92,1.95-1.81,2.95-2.69Zm-33,48c1.16,2.24,2.37,4.44,3.63,6.62s2.63,4.42,4,6.58a117.81,117.81,0,0,1-11.8-1.9C98.79,142.1,100.18,138.31,101.81,134.44Zm0-12.86c-1.59-3.78-3-7.49-4.07-11.07,3.65-.82,7.55-1.49,11.6-2q-2,3.17-3.92,6.44c-1.26,2.19-2.46,4.39-3.62,6.63Zm2.91,6.43q2.52-5.26,5.44-10.31h0q2.91-5.06,6.21-9.88c3.8-.29,7.71-.44,11.66-.44s7.87.15,11.67.44q3.26,4.82,6.17,9.85t5.52,10.27q-2.56,5.28-5.5,10.36h0q-2.91,5.05-6.14,9.91c-3.8.27-7.73.42-11.72.42s-7.87-.13-11.59-.37q-3.31-4.84-6.26-9.93T104.71,128Zm45.9,13q1.94-3.34,3.71-6.78h0a117,117,0,0,1,4.3,11.26,114.94,114.94,0,0,1-11.94,2q2-3.23,3.92-6.51Zm3.66-19.44q-1.77-3.36-3.68-6.66h0q-1.87-3.25-3.89-6.4c4.08.52,8,1.2,11.66,2a116.57,116.57,0,0,1-4.1,11ZM128.08,93a116.7,116.7,0,0,1,7.53,9.09q-7.56-.36-15.12,0c2.48-3.28,5-6.32,7.58-9.09ZM98.6,77.4c4.29-2.48,13.76,1.06,23.73,9.92q1,.86,1.92,1.77a133.18,133.18,0,0,0-10.9,13.5,133.13,133.13,0,0,0-17.09,2.65c-.33-1.3-.62-2.62-.88-3.94h0C93,89,94.57,79.73,98.6,77.4Zm-6.24,67c-1.06-.31-2.11-.64-3.16-1a46.53,46.53,0,0,1-14.92-7.93,11.36,11.36,0,0,1-4.78-7.6c0-4.66,7-10.61,18.54-14.65,1.45-.51,2.92-1,4.41-1.39A130.37,130.37,0,0,0,98.69,128a133.4,133.4,0,0,0-6.34,16.39ZM122,169.34a46.06,46.06,0,0,1-14.32,9h0a11.31,11.31,0,0,1-9,.34c-4-2.33-5.72-11.32-3.43-23.38.28-1.42.59-2.84.94-4.25a128.71,128.71,0,0,0,17.25,2.5,131.24,131.24,0,0,0,11,13.56c-.81.78-1.63,1.54-2.46,2.26Zm6.24-6.18c-2.59-2.8-5.17-5.89-7.7-9.22q3.68.13,7.49.14t7.73-.17a117.17,117.17,0,0,1-7.52,9.25Zm33.21,7.6a11.31,11.31,0,0,1-4.19,7.94c-4,2.34-12.66-.69-22-8.7-1.06-.92-2.14-1.9-3.22-2.94a127,127,0,0,0,10.73-13.62,128.31,128.31,0,0,0,17.34-2.67q.39,1.57.69,3.09h0a46,46,0,0,1,.62,16.91Zm4.64-27.31h0c-.7.23-1.42.45-2.15.67a128,128,0,0,0-6.48-16.21,127.73,127.73,0,0,0,6.24-16c1.31.38,2.58.77,3.8,1.2,11.85,4.07,19.07,10.1,19.07,14.75,0,5-7.82,11.38-20.49,15.58Z"/>
  <path id="Path_2-2" data-name="Path 2-2" d="M128,139.32a11.43,11.43,0,1,0-11.43-11.43A11.43,11.43,0,0,0,128,139.32Z"/>
</svg>
