<svg id="Layer_1" data-name="Layer 1" xmlns="http://www.w3.org/2000/svg" viewBox="0 0 256 256">
  <path id="typescriptlang-ar21-2" d="M39.56,105.4H27.48v37.41H22.56V105.4h-12V101h29Zm19.06,7.53L44.87,147.59q-3.67,9.27-10.33,9.28a11,11,0,0,1-3.12-.39v-4.29a8.86,8.86,0,0,0,2.83.53,5.86,5.86,0,0,0,5.43-4.32l2.39-5.66L30.39,112.93H35.7l8.09,23c.1.29.3,1.05.61,2.27h.18l.58-2.22,8.49-23Zm7.81,25.56h-.11v18.06H61.54V112.93h4.79v5.25h.1a11.32,11.32,0,0,1,10.34-6,10.92,10.92,0,0,1,9,4A16.62,16.62,0,0,1,89,127a18.56,18.56,0,0,1-3.64,12,12.16,12.16,0,0,1-10,4.51,10,10,0,0,1-9-5Zm-.11-12.05v4.17a9,9,0,0,0,2.4,6.3,8.6,8.6,0,0,0,12.16.12,8.07,8.07,0,0,0,.78-.87,15.28,15.28,0,0,0,2.46-9.25,12,12,0,0,0-2.31-7.81,7.64,7.64,0,0,0-6.24-2.83,8.47,8.47,0,0,0-6.71,2.9,10.55,10.55,0,0,0-2.53,7.27ZM118,129.06H97a11.18,11.18,0,0,0,2.68,7.7,9.26,9.26,0,0,0,7.09,2.72,14.76,14.76,0,0,0,9.28-3.34v4.49a17.34,17.34,0,0,1-10.42,2.86,12.65,12.65,0,0,1-10-4.07A16.64,16.64,0,0,1,92,128a16.32,16.32,0,0,1,4-11.36,12.67,12.67,0,0,1,9.82-4.39,11.21,11.21,0,0,1,9.06,3.79A15.83,15.83,0,0,1,118,126.54v2.51Zm-4.92-4a9.75,9.75,0,0,0-2-6.44,6.86,6.86,0,0,0-5.47-2.31,7.77,7.77,0,0,0-5.76,2.43A10.93,10.93,0,0,0,97,125Zm9.09,16.1v-5.77a10.88,10.88,0,0,0,2.18,1.57,15.16,15.16,0,0,0,2.67,1.18,22.82,22.82,0,0,0,2.81.75,13.71,13.71,0,0,0,2.63.26,9.57,9.57,0,0,0,6.18-1.67,5.89,5.89,0,0,0,2-4.83,6.14,6.14,0,0,0-.68-2.94,7.88,7.88,0,0,0-1.89-2.29,18.18,18.18,0,0,0-2.85-2l-3.53-2L128,121.14a16.06,16.06,0,0,1-3-2.51,9.88,9.88,0,0,1-2.75-7.18,10.1,10.1,0,0,1,4.17-8.45,13.15,13.15,0,0,1,4.25-2,18.32,18.32,0,0,1,4.88-.69,17.46,17.46,0,0,1,8.25,1.49v5.51a14,14,0,0,0-8.71-2.56,13.25,13.25,0,0,0-2.94.33,7.66,7.66,0,0,0-2.62,1.1,6,6,0,0,0-1.87,2A5.52,5.52,0,0,0,127,111a6.3,6.3,0,0,0,.55,2.77,6.9,6.9,0,0,0,1.61,2.14,15.88,15.88,0,0,0,2.61,1.86l3.53,2,3.9,2.33a17.52,17.52,0,0,1,3.23,2.72,11.92,11.92,0,0,1,2.2,3.29,10,10,0,0,1,.82,4.15,11.42,11.42,0,0,1-1.11,5.24,9.66,9.66,0,0,1-3,3.49,12.45,12.45,0,0,1-4.35,1.94,21.51,21.51,0,0,1-5.18.6,18.59,18.59,0,0,1-2.24-.15l-2.72-.47a21.78,21.78,0,0,1-2.62-.76,7.87,7.87,0,0,1-2-1Zm48.68.32a15.53,15.53,0,0,1-8.15,2.08,13.52,13.52,0,0,1-10.32-4.16,15.08,15.08,0,0,1-3.93-10.78,16.61,16.61,0,0,1,4.23-11.86,14.79,14.79,0,0,1,11.3-4.48,15.73,15.73,0,0,1,6.95,1.46v4.92a12.15,12.15,0,0,0-7.12-2.33,9.58,9.58,0,0,0-7.51,3.29,12.43,12.43,0,0,0-2.93,8.62,11.83,11.83,0,0,0,2.75,8.28,9.51,9.51,0,0,0,7.39,3,12,12,0,0,0,7.36-2.6v4.53Zm18.52-23.67a5.92,5.92,0,0,0-3.64-1,6.08,6.08,0,0,0-5.12,2.89,13.41,13.41,0,0,0-2.05,7.87v15.22h-4.78V112.91h4.79v6.16h.11a10.42,10.42,0,0,1,3.13-4.92,7.15,7.15,0,0,1,4.69-1.76,7.32,7.32,0,0,1,2.86.43Zm5.48-12.42a3.06,3.06,0,0,1-2.19-.87,2.93,2.93,0,0,1-.9-2.22,3.07,3.07,0,0,1,3-3.12h.1a3.11,3.11,0,0,1,2.25,5.3h0a3.1,3.1,0,0,1-2.23.9Zm2.34,37.47h-4.77V112.93h4.79Zm7.72-4.32h-.1v18.06h-4.78V112.93h4.78v5.25H205a11.32,11.32,0,0,1,10.33-6,11,11,0,0,1,9,4A16.55,16.55,0,0,1,227.55,127a18.51,18.51,0,0,1-3.64,12,12.16,12.16,0,0,1-10,4.51,10,10,0,0,1-9-5Zm-.12-12.05v4.18a8.89,8.89,0,0,0,2.41,6.29,8.59,8.59,0,0,0,12.15.13,9.26,9.26,0,0,0,.78-.88,15.28,15.28,0,0,0,2.46-9.25,12,12,0,0,0-2.28-7.8,7.64,7.64,0,0,0-6.24-2.83,8.5,8.5,0,0,0-6.72,2.9,10.67,10.67,0,0,0-2.54,7.27Zm40.62,16.08a9.2,9.2,0,0,1-4.47.93q-7.83,0-7.85-8.76V117H228v-4.08h5.14v-7.3l4.78-1.54v8.84h7.53V117h-7.53v16.84a7,7,0,0,0,1,4.29,4.06,4.06,0,0,0,3.38,1.28,5,5,0,0,0,3.12-1Z"/>
</svg>
