<svg id="Layer_1" xmlns="http://www.w3.org/2000/svg" viewBox="0 0 256 256">
  <path id="universal-access-solid-2" d="M128,20.65a107.3,107.3,0,1,1-.11,0H128M128,0A128,128,0,1,0,256,128,128,128,0,0,0,128,0Zm0,28.9A99.1,99.1,0,1,0,227.1,128,99.1,99.1,0,0,0,128,28.9Zm0,22.72A18.58,18.58,0,1,1,109.42,70.2h0A18.58,18.58,0,0,1,128,51.62Zm60.8,50.59a370.06,370.06,0,0,1-42.4,8.16c.44,52.14,6.35,63.51,12.92,80.32a9.29,9.29,0,0,1-17.3,6.76,147.92,147.92,0,0,1-11.49-40.55h-5A148.28,148.28,0,0,1,114,197.45a9.29,9.29,0,0,1-17.3-6.76h0c6.56-16.8,12.48-28.15,12.92-80.32a370.06,370.06,0,0,1-42.4-8.16,8.26,8.26,0,0,1,3.79-16.07c49.9,11.78,64.14,11.76,114,0a8.26,8.26,0,0,1,3.79,16.07h0Z"/>
</svg>
