<svg id="Layer_1" data-name="Layer 1" xmlns="http://www.w3.org/2000/svg" viewBox="0 0 256 256">
  <g>
    <path id="Path_21-2" data-name="Path 21-2" d="M56,100.25,31.45,114.12v27.76L56,155.75l24.53-13.87V114.12Zm.81,3.9,19.83,11.22h0l-7,4-.1,0-12.71-7ZM35.26,115.37l19.83-11.22v8.23l-12.71,7-.1.06Zm-.83,1.48,7.07,4.09v14.7l-7.07,4.08Zm20.66,35L35.76,140.92,43,136.71l12.05,6.62Zm0-10.45L43.2,134.86v-13l11.89,6.87Zm.85-14.1L44,120.41l11.93-6.56,11.94,6.56Zm.85,1.47,11.89-6.86v13L56.79,141.4Zm19.34,12.15h0L56.79,151.85v-8.52l12.05-6.63,7.29,4.21Zm1.32-1.2h0l-7.07-4.08V120.93l7.07-4.08Z"/>
    <path id="Path_22-2" data-name="Path 22-2" d="M105.24,136.78h5.23L115.8,119h-5.1l-3.15,12.6L104.18,119H99.76l-3.4,12.6L93.24,119H88.15l5.3,17.76h5.23L102,125.4ZM116.07,128a8.87,8.87,0,0,0,8.43,9.28c.3,0,.61,0,.91,0a8.47,8.47,0,0,0,7.48-3.91l-3.1-2.34a5.17,5.17,0,0,1-4.31,2.17,4.31,4.31,0,0,1-4.62-4v-.08h12.5c0-.35,0-.68,0-1,0-5.81-3.12-9.47-8.62-9.47-5.07,0-8.7,4-8.7,9.37ZM121,126a3.78,3.78,0,0,1,3.85-3.6,3.64,3.64,0,0,1,3.8,3.46V126Zm14.17,10.77h4.42V135a6.89,6.89,0,0,0,5.27,2.28c5.09,0,8.69-3.84,8.69-9.31s-3.33-9.34-8.42-9.34a6.69,6.69,0,0,0-5.27,2.31v-8.66h-4.68v24.55Zm4.55-8.83c0-3.32,2-5.23,4.55-5.23s4.55,2.15,4.55,5.23-1.89,5.13-4.55,5.13a4.67,4.67,0,0,1-4.57-4.76c0-.12,0-.24,0-.37Zm15.66,15.18h4.68v-8.19a6.78,6.78,0,0,0,5.27,2.28c5.09,0,8.42-3.84,8.42-9.34s-3.6-9.31-8.7-9.31a6.82,6.82,0,0,0-5.26,2.31V119h-4.42v24.12Zm4.55-15.28a4.65,4.65,0,0,1,4.17-5.1c.12,0,.25,0,.38,0,2.65,0,4.55,2,4.55,5.13s-1.83,5.23-4.55,5.23-4.55-1.9-4.55-5.23Zm14.67,3.43c0,3.73,3.06,5.95,6.66,5.95a5.57,5.57,0,0,0,4.31-1.6l.31,1.15H190V125.54c0-4-1.7-7-7.4-7a13.28,13.28,0,0,0-7,2.1l1.77,3.2a10.53,10.53,0,0,1,4.72-1.27c2.07,0,3.23,1.06,3.23,2.62v1.16a7.14,7.14,0,0,0-3.84-1c-4.15,0-6.9,2.37-6.9,5.87Zm4.69-.14c0-1.46,1.26-2.48,3.05-2.48s3.1.92,3.1,2.48-1.3,2.45-3.06,2.45-3.1-1-3.1-2.45Zm22.11,1.94a5.18,5.18,0,0,1-.16-10.35,6.07,6.07,0,0,1,4.15,1.69l1.32-3.94a9.07,9.07,0,0,0-5.6-1.9,9.16,9.16,0,0,0-9.44,8.86,4.51,4.51,0,0,0,0,.52,9,9,0,0,0,8.76,9.28c.24,0,.47,0,.7,0a9,9,0,0,0,5.54-1.89l-1.27-3.84a6.38,6.38,0,0,1-4,1.59Zm7,3.7h4.68v-9.17l6,9.17h5.5l-6.73-9.71,6.25-8h-5.26l-5.71,7.47V112.23h-4.68v24.55Z"/>
  </g>
</svg>
